<svg xmlns="http://www.w3.org/2000/svg" width="24" height="24" viewBox="0 0 24 24" fill="none">
  <g filter="url(#filter0_d_1013_698)">
    <path d="M8.84995 17.4499C8.71662 17.2832 8.64579 17.0999 8.63745 16.8999C8.62912 16.6999 8.69995 16.5249 8.84995 16.3749L13.25 11.9749L8.82495 7.54991C8.69162 7.41658 8.62912 7.23741 8.63745 7.01241C8.64579 6.78741 8.71662 6.60824 8.84995 6.47491C9.01662 6.30824 9.19579 6.22908 9.38745 6.23741C9.57912 6.24574 9.74995 6.32491 9.89995 6.47491L14.875 11.4499C14.9583 11.5332 15.0166 11.6166 15.05 11.6999C15.0833 11.7832 15.1 11.8749 15.1 11.9749C15.1 12.0749 15.0833 12.1666 15.05 12.2499C15.0166 12.3332 14.9583 12.4166 14.875 12.4999L9.92495 17.4499C9.77495 17.5999 9.59995 17.6707 9.39995 17.6624C9.19995 17.6541 9.01662 17.5832 8.84995 17.4499Z" fill="white"/>
  </g>
  <defs>
    <filter id="filter0_d_1013_698" x="4.63672" y="3.23682" width="14.4631" height="19.4263" filterUnits="userSpaceOnUse" color-interpolation-filters="sRGB">
      <feFlood flood-opacity="0" result="BackgroundImageFix"/>
      <feColorMatrix in="SourceAlpha" type="matrix" values="0 0 0 0 0 0 0 0 0 0 0 0 0 0 0 0 0 0 127 0" result="hardAlpha"/>
      <feMorphology radius="1" operator="dilate" in="SourceAlpha" result="effect1_dropShadow_1013_698"/>
      <feOffset dy="1"/>
      <feGaussianBlur stdDeviation="1.5"/>
      <feComposite in2="hardAlpha" operator="out"/>
      <feColorMatrix type="matrix" values="0 0 0 0 0 0 0 0 0 0 0 0 0 0 0 0 0 0 0.2 0"/>
      <feBlend mode="normal" in2="BackgroundImageFix" result="effect1_dropShadow_1013_698"/>
      <feBlend mode="normal" in="SourceGraphic" in2="effect1_dropShadow_1013_698" result="shape"/>
    </filter>
  </defs>
</svg>